<svg width="540" height="361" viewBox="0 0 540 361" fill="none" xmlns="http://www.w3.org/2000/svg">
<path d="M183.192 97.9901L119.84 0L56.4878 97.9901C47.3421 112.13 37.4545 126.501 27.0943 140.708C8.33428 166.423 -1.20583 198.948 0.231242 232.286C1.68003 265.834 14.1802 297.368 35.4277 321.076C57.921 346.177 87.9042 360.001 119.844 360.001C151.783 360.001 181.763 346.177 204.26 321.076C225.507 297.364 238.004 265.834 239.449 232.286C240.889 198.944 231.353 166.419 212.589 140.704C202.225 126.501 192.334 112.13 183.192 97.9901ZM137.991 315.726C134.125 315.726 130.993 312.59 130.993 308.728C130.993 304.862 134.125 301.73 137.991 301.73C167.208 301.73 190.979 274.836 190.979 241.791C190.979 237.925 194.114 234.793 197.977 234.793C201.843 234.793 204.975 237.925 204.975 241.791C204.975 282.56 174.921 315.726 137.991 315.726Z" fill="#65D6FA"/>
<path d="M483.102 97.9901L419.75 0L356.398 97.9901C347.252 112.13 337.365 126.501 327.005 140.708C308.245 166.423 298.705 198.948 300.142 232.286C301.59 265.834 314.091 297.368 335.338 321.076C357.831 346.177 387.814 360.001 419.754 360.001C451.694 360.001 481.673 346.177 504.17 321.076C525.418 297.364 537.914 265.834 539.359 232.286C540.8 198.944 531.264 166.419 512.5 140.704C502.136 126.501 492.244 112.13 483.102 97.9901ZM437.901 315.726C434.035 315.726 430.903 312.59 430.903 308.728C430.903 304.862 434.035 301.73 437.901 301.73C467.119 301.73 490.889 274.836 490.889 241.791C490.889 237.925 494.025 234.793 497.887 234.793C501.753 234.793 504.885 237.925 504.885 241.791C504.885 282.56 474.831 315.726 437.901 315.726Z" fill="#65D6FA"/>
</svg>
