<svg width="884" height="360" viewBox="0 0 884 360" fill="none" xmlns="http://www.w3.org/2000/svg">
<g clip-path="url(#clip0)">
<path d="M183.192 97.9901L119.84 0L56.4878 97.9901C47.3421 112.13 37.4545 126.501 27.0943 140.708C8.33426 166.423 -1.20584 198.948 0.231227 232.286C1.68002 265.834 14.1802 297.368 35.4277 321.076C57.921 346.177 87.9042 360.001 119.844 360.001C151.783 360.001 181.763 346.177 204.26 321.076C225.507 297.364 238.004 265.834 239.449 232.286C240.89 198.944 231.353 166.419 212.589 140.704C202.225 126.501 192.334 112.13 183.192 97.9901ZM137.991 315.726C134.125 315.726 130.993 312.59 130.993 308.728C130.993 304.862 134.125 301.73 137.991 301.73C167.208 301.73 190.979 274.836 190.979 241.791C190.979 237.925 194.114 234.793 197.977 234.793C201.843 234.793 204.974 237.925 204.974 241.791C204.974 282.56 174.921 315.726 137.991 315.726Z" fill="#65D6FA"/>
</g>
<g clip-path="url(#clip1)">
<path d="M505.192 97.9901L441.84 0L378.488 97.9901C369.342 112.13 359.454 126.501 349.094 140.708C330.334 166.423 320.794 198.948 322.231 232.286C323.68 265.834 336.18 297.368 357.428 321.076C379.921 346.177 409.904 360.001 441.844 360.001C473.783 360.001 503.763 346.177 526.26 321.076C547.507 297.364 560.004 265.834 561.449 232.286C562.89 198.944 553.353 166.419 534.589 140.704C524.225 126.501 514.334 112.13 505.192 97.9901ZM459.991 315.726C456.125 315.726 452.993 312.59 452.993 308.728C452.993 304.862 456.125 301.73 459.991 301.73C489.208 301.73 512.979 274.836 512.979 241.791C512.979 237.925 516.114 234.793 519.977 234.793C523.843 234.793 526.974 237.925 526.974 241.791C526.974 282.56 496.921 315.726 459.991 315.726Z" fill="#65D6FA"/>
</g>
<g clip-path="url(#clip2)">
<path d="M827.192 97.9901L763.84 0L700.488 97.9901C691.342 112.13 681.454 126.501 671.094 140.708C652.334 166.423 642.794 198.948 644.231 232.286C645.68 265.834 658.18 297.368 679.428 321.076C701.921 346.177 731.904 360.001 763.844 360.001C795.783 360.001 825.763 346.177 848.26 321.076C869.507 297.364 882.004 265.834 883.449 232.286C884.89 198.944 875.353 166.419 856.589 140.704C846.225 126.501 836.334 112.13 827.192 97.9901ZM781.991 315.726C778.125 315.726 774.993 312.59 774.993 308.728C774.993 304.862 778.125 301.73 781.991 301.73C811.208 301.73 834.979 274.836 834.979 241.791C834.979 237.925 838.114 234.793 841.977 234.793C845.843 234.793 848.974 237.925 848.974 241.791C848.974 282.56 818.921 315.726 781.991 315.726Z" fill="#65D6FA"/>
</g>
<defs>
<clipPath id="clip0">
<rect width="240" height="360" fill="white"/>
</clipPath>
<clipPath id="clip1">
<rect x="322" width="240" height="360" fill="white"/>
</clipPath>
<clipPath id="clip2">
<rect x="644" width="240" height="360" fill="white"/>
</clipPath>
</defs>
</svg>
