<svg width="240" height="360" viewBox="0 0 240 360" fill="none" xmlns="http://www.w3.org/2000/svg">
<path d="M183.192 97.9901L119.84 0L56.4878 97.9901C47.3421 112.13 37.4545 126.501 27.0943 140.708C8.33428 166.423 -1.20583 198.948 0.231242 232.286C1.68003 265.834 14.1802 297.368 35.4277 321.076C57.921 346.177 87.9042 360.001 119.844 360.001C151.783 360.001 181.763 346.177 204.26 321.076C225.507 297.364 238.004 265.834 239.449 232.286C240.89 198.944 231.353 166.419 212.589 140.704C202.225 126.501 192.334 112.13 183.192 97.9901ZM137.991 315.726C134.125 315.726 130.993 312.59 130.993 308.728C130.993 304.862 134.125 301.73 137.991 301.73C167.208 301.73 190.979 274.836 190.979 241.791C190.979 237.925 194.114 234.793 197.977 234.793C201.843 234.793 204.974 237.925 204.974 241.791C204.974 282.56 174.921 315.726 137.991 315.726Z" fill="#65D6FA"/>
</svg>
