<svg width="6" height="6" viewBox="0 0 6 6" fill="none" xmlns="http://www.w3.org/2000/svg">
<path d="M5.62773 1.46345C5.50036 1.25291 5.34327 1.04673 5.151 0.855546C4.95655 0.662455 4.74682 0.504273 4.53218 0.377182L4.90909 0C4.90909 0 5.45455 0 5.72727 0.272727C6 0.545455 6 1.09091 6 1.09091L5.62773 1.46345ZM2.45455 4.63636H1.36364V3.54545L1.49455 3.41455C1.71627 3.51955 1.93664 3.66709 2.13491 3.86509C2.33345 4.06391 2.48073 4.28373 2.58545 4.50546L2.45455 4.63636ZM5.31273 1.77818L2.90018 4.19045C2.77282 3.98018 2.61573 3.77345 2.42345 3.58255C2.22927 3.38918 2.01927 3.23127 1.80464 3.10418L4.22182 0.687273C4.44355 0.791727 4.66391 0.939273 4.86218 1.13755C5.061 1.33609 5.20827 1.55645 5.31273 1.77818ZM0.818182 0.818182V5.18182H5.18182V3.27273L6 2.44418V5.45455C6 5.75591 5.75564 6 5.45455 6H0.545455C0.244364 6 0 5.75591 0 5.45455V0.545455C0 0.244364 0.244364 0 0.545455 0H3.54818L2.72973 0.818182H0.818182Z" fill="black"/>
</svg>
