<svg id="Layer_1" enable-background="new 0 0 511.215 511.215" height="512" viewBox="0 0 511.215 511.215" width="512" xmlns="http://www.w3.org/2000/svg"><path d="m439.071 205.61c.406 0-33.855-15.725-64.331 10.831-3.391-13.336-7.831-26.458-13.305-39.25-22.393-52.324-96.067-54.404-121.538-3.422-4.496 9-8.443 18.137-11.836 27.364-4.781-7.289-9.58-14.397-14.407-21.3 17.661-19.145 34.422-53.411 49.474-69.545 15.136 7.505 39.521 6.351 53.359.578 20.194-8.423 29.723-31.583 21.298-51.779-8.424-20.195-31.582-29.721-51.779-21.297-14.905 6.217-35.483 25.323-38.405 43.478-9.094 7.152-17.295 18.061-25.442 30.313-.288-11.347-1.899-22.189-4.786-32.81 8.817-16.07 4.13-44.023-4.638-58.659-11.242-18.771-35.532-24.865-54.305-13.621-18.727 11.216-24.837 35.578-13.622 54.305 0 2.843 20.843 27.146 42.859 31.167 3.454 15.791 3.297 32.703-.543 52.18-45.28-57.211-98.131-105.699-163.627-140.419-7.808-4.138-17.492-1.165-21.63 6.643-4.139 7.807-1.165 17.492 6.643 21.63 14.129 7.49 27.773 15.753 41.04 24.819 2.432 2.375 13.91 8.838 15.783 36.459.682 10.052-.313 18.884-1.643 24.96-17.228 3.366-35.922 20.798-42.866 34.234-10.022 19.393-2.399 43.324 16.993 53.347 19.355 10.003 43.304 2.438 53.347-16.993 7.233-13.993 10.764-41.2 1.985-57.059 3.219-10.344 4.83-23.741 4.297-37.162 35.272 31.791 65.18 67.774 91.9 106.33-39.086-.177-96.645 41.197-99.214 114.977-1.654 47.465 20.435 89.634 57.306 111.761-5.478 55.12 44.473 98.848 92.187 76.913 22.987-10.566 40.943-27.394 53.689-49.173 12.674 21.715 30.602 38.584 53.642 49.172 45.694 21.009 93.872-18.26 92.563-70.901 96.101-39.975 95.236-188.399-.448-228.071zm-140.746-138.286c0-.101 2.849-1.231 5.809-.015 6.247 2.57 6.238 11.436.034 14.023-5.806 2.421-17.061 2.746-23.325 1.506 3.527-5.322 11.676-13.093 17.482-15.514zm-126.064-22.97c-2.15-3.59-.979-8.26 2.611-10.411 3.59-2.15 8.26-.979 10.411 2.612 3.232 5.396 5.171 16.487 4.849 22.865-5.776-2.725-14.639-9.669-17.871-15.066zm-109.526 129.777c-1.924 3.723-6.503 5.183-10.227 3.258-3.718-1.921-5.179-6.509-3.258-10.227 2.889-5.588 11.3-13.074 16.893-16.155.723 6.345-.519 17.536-3.408 23.124zm205.788 13.94c13.31-26.644 51.785-25.644 63.491 1.71 7.567 17.682 12.896 36.059 15.898 54.75-13.292 8.118-30.166 10.466-43.752 22.527-14.294-20.46-36.653-23.785-52.999-32.458 3.944-15.713 9.763-31.32 17.362-46.529zm33.69 147.447c-9.208 1.027-16.979-6.175-16.979-15.149 0-9.71 8.816-16.844 18.274-14.952 7.086 1.417 12.229 7.705 12.229 14.952 0 7.776-5.814 14.289-13.524 15.149zm-122.551-101.049c11.74-3.934 24.505-.086 32.605 9.473 21 24.783 48.894 25.917 61.807 37.186-25.124 16.878-27.981 52.717-6.111 73.508-15.461 7.283-38.871 11.75-56.842 39.094-8.093 12.314-23.52 17.292-36.679 11.836-71.199-29.518-70.2-145.82 5.22-171.097zm46.595 241.04c-23.004 10.576-45.343-10.489-47.132-36.08-.089-.1 2.013.331 6.349.331 20.476 0 40.439-10.272 52.39-28.456 11.441-17.408 25.978-19.608 42.463-27.129-.221 37.718-18.964 75.196-54.07 91.334zm132.611-.675c-21.7-10.163-39.455-29.657-49.175-63.21 1.466-7.57 2.327-15.339 2.571-23.227 18.455 12.383 38.876 13.229 52.311 29.084 11.147 13.155 26.61 20.851 42.834 22.123-1.855 24.711-23.103 47.159-48.541 35.23zm62.727-68.567c-11.631 3.898-24.427.179-32.606-9.473-21.098-24.899-49.062-25.894-61.951-37.313 24.783-16.825 27.94-52.34 6.048-73.283 15.365-7.303 39.018-11.754 57.05-39.192 8.092-12.315 23.521-17.291 36.681-11.836h-.001c71.196 29.518 70.197 145.821-5.221 171.097z"/></svg>